<mxfile host="app.diagrams.net" modified="2024-06-04T15:28:31.661Z" agent="Mozilla/5.0 (Macintosh; Intel Mac OS X 10_15_7) AppleWebKit/537.36 (KHTML, like Gecko) Chrome/125.0.0.0 Safari/537.36" etag="lFQoawwaTiTmAPNI_YyA" version="24.4.13" type="github">
  <diagram name="Page-1" id="uiMghKIb5zzLBiwUx-x3">
    <mxGraphModel dx="1442" dy="833" grid="1" gridSize="10" guides="1" tooltips="1" connect="1" arrows="1" fold="1" page="1" pageScale="1" pageWidth="827" pageHeight="1169" math="0" shadow="0">
      <root>
        <mxCell id="0" />
        <mxCell id="1" parent="0" />
        <mxCell id="1dIFUPJrACjhJOhz9-y4-3" value="" style="edgeStyle=orthogonalEdgeStyle;rounded=0;orthogonalLoop=1;jettySize=auto;html=1;" edge="1" parent="1" source="1dIFUPJrACjhJOhz9-y4-1" target="1dIFUPJrACjhJOhz9-y4-2">
          <mxGeometry relative="1" as="geometry" />
        </mxCell>
        <mxCell id="1dIFUPJrACjhJOhz9-y4-1" value="" style="ellipse;whiteSpace=wrap;html=1;aspect=fixed;" vertex="1" parent="1">
          <mxGeometry x="430" y="350" width="80" height="80" as="geometry" />
        </mxCell>
        <mxCell id="1dIFUPJrACjhJOhz9-y4-2" value="" style="ellipse;whiteSpace=wrap;html=1;" vertex="1" parent="1">
          <mxGeometry x="590" y="350" width="80" height="80" as="geometry" />
        </mxCell>
      </root>
    </mxGraphModel>
  </diagram>
</mxfile>
